<svg width="174" height="68" viewBox="0 0 174 68" fill="none" xmlns="http://www.w3.org/2000/svg"><path d="M0 0v68l174.021-.033V.006H.006zm60.12.746c5.826 0 10.825 1.411 14.995 4.233 4.17 2.76 7.36 6.654 9.569 11.683 2.269 4.968 3.404 10.765 3.404 17.389 0 6.624-1.135 12.449-3.404 17.478-2.208 4.968-5.398 8.865-9.569 11.686-4.17 2.76-9.17 4.139-14.996 4.139-5.826 0-10.856-1.38-15.088-4.14-4.17-2.82-7.389-6.717-9.658-11.685-2.208-5.029-3.312-10.854-3.312-17.478 0-6.624 1.104-12.42 3.312-17.389 2.27-5.03 5.488-8.923 9.658-11.683C49.263 2.157 54.293.746 60.12.746zM15.02 1.85h6.255v64.4H11.156V12.89L.76 15.282V8.105L15.02 1.85zm45.1 7.636c-3.558 0-6.685.981-9.384 2.944-2.698 1.962-4.814 4.785-6.347 8.465-1.534 3.68-2.301 8.065-2.301 13.156 0 5.09.767 9.476 2.3 13.156 1.534 3.68 3.65 6.5 6.348 8.463 2.699 1.963 5.826 2.943 9.383 2.943 3.496 0 6.595-.98 9.293-2.943 2.76-1.963 4.906-4.783 6.44-8.463 1.533-3.68 2.3-8.066 2.3-13.156s-.767-9.476-2.3-13.156c-1.534-3.68-3.68-6.503-6.44-8.465-2.698-1.963-5.797-2.944-9.293-2.944zm87.968 9.66h8.465V35.43h17.386v8.187h-17.386v16.377h-8.465V43.617h-17.389V35.43h17.389V19.146z" fill="#fff"/></svg>