<svg width="174" height="88" viewBox="0 0 174 88" fill="none" xmlns="http://www.w3.org/2000/svg"><path fill-rule="evenodd" clip-rule="evenodd" d="M0 0h174v88H0V0zm111.956 51.32V44.2h15.12V30.04h7.36V44.2h15.12v7.12h-15.12v14.24h-7.36V51.32h-15.12zM40.897 68.36c3.68 2.4 8.054 3.6 13.12 3.6 5.067 0 9.414-1.2 13.04-3.6 3.627-2.453 6.4-5.84 8.32-10.16 1.974-4.373 2.96-9.44 2.96-15.2s-.986-10.8-2.96-15.12c-1.92-4.373-4.693-7.76-8.32-10.16-3.626-2.453-7.973-3.68-13.04-3.68-5.066 0-9.44 1.227-13.12 3.68-3.626 2.4-6.426 5.787-8.4 10.16-1.92 4.32-2.88 9.36-2.88 15.12s.96 10.827 2.88 15.2c1.974 4.32 4.774 7.707 8.4 10.16zm21.2-6.56c-2.346 1.707-5.04 2.56-8.08 2.56-3.093 0-5.813-.853-8.16-2.56-2.346-1.707-4.186-4.16-5.52-7.36-1.333-3.2-2-7.013-2-11.44s.667-8.24 2-11.44c1.334-3.2 3.174-5.653 5.52-7.36 2.347-1.707 5.067-2.56 8.16-2.56 3.04 0 5.734.853 8.08 2.56 2.4 1.707 4.267 4.16 5.6 7.36 1.334 3.2 2 7.013 2 11.44s-.666 8.24-2 11.44c-1.333 3.2-3.2 5.653-5.6 7.36zM11.44 24.6V71h8.8V15H14.8L2.4 20.44v6.24l9.04-2.08z" fill="#fff"/></svg>