<svg width="174" height="88" viewBox="0 0 174 88" fill="none" xmlns="http://www.w3.org/2000/svg"><path fill-rule="evenodd" clip-rule="evenodd" d="M0 0h174v88H0V0zm4.56 71v-6.08a249.174 249.174 0 0010.4-8.72c3.307-2.933 6.24-5.813 8.8-8.64 2.613-2.88 4.667-5.68 6.16-8.4 1.493-2.773 2.24-5.44 2.24-8 0-1.707-.293-3.307-.88-4.8-.587-1.547-1.547-2.773-2.88-3.68-1.333-.96-3.12-1.44-5.36-1.44-3.36 0-5.893 1.067-7.6 3.2-1.653 2.133-2.453 4.693-2.4 7.68H4.8c.053-3.947.88-7.253 2.48-9.92 1.653-2.667 3.84-4.693 6.56-6.08 2.773-1.387 5.893-2.08 9.36-2.08 5.28 0 9.493 1.493 12.64 4.48 3.2 2.933 4.8 7.04 4.8 12.32 0 3.147-.773 6.267-2.32 9.36-1.493 3.093-3.467 6.08-5.92 8.96a84.464 84.464 0 01-7.76 8 190.428 190.428 0 01-7.92 6.8h25.6V71H4.56zm68.676.96c-5.066 0-9.44-1.2-13.12-3.6-3.626-2.453-6.426-5.84-8.4-10.16-1.92-4.373-2.88-9.44-2.88-15.2s.96-10.8 2.88-15.12c1.974-4.373 4.774-7.76 8.4-10.16 3.68-2.453 8.054-3.68 13.12-3.68 5.067 0 9.414 1.227 13.04 3.68 3.627 2.4 6.4 5.787 8.32 10.16 1.974 4.32 2.96 9.36 2.96 15.12s-.986 10.827-2.96 15.2c-1.92 4.32-4.693 7.707-8.32 10.16-3.626 2.4-7.973 3.6-13.04 3.6zm0-7.6c3.04 0 5.734-.853 8.08-2.56 2.4-1.707 4.267-4.16 5.6-7.36 1.334-3.2 2-7.013 2-11.44s-.666-8.24-2-11.44c-1.333-3.2-3.2-5.653-5.6-7.36-2.346-1.707-5.04-2.56-8.08-2.56-3.093 0-5.813.853-8.16 2.56-2.346 1.707-4.186 4.16-5.52 7.36-1.333 3.2-2 7.013-2 11.44s.667 8.24 2 11.44c1.334 3.2 3.174 5.653 5.52 7.36 2.347 1.707 5.067 2.56 8.16 2.56zm57.72-20.16v7.12h15.12v14.24h7.36V51.32h15.12V44.2h-15.12V30.04h-7.36V44.2h-15.12z" fill="#fff"/></svg>