<svg width="179" height="68" viewBox="0 0 179 68" fill="none" xmlns="http://www.w3.org/2000/svg"><path d="M-2.145-2.977V70.98h184.717V-2.977H-2.145zM21.68.996c6.072 0 10.918 1.718 14.537 5.152 3.68 3.374 5.52 8.096 5.52 14.168 0 3.62-.89 7.207-2.669 10.764-1.717 3.557-3.987 6.993-6.808 10.305a97.111 97.111 0 01-8.924 9.199 219.023 219.023 0 01-9.107 7.82h29.439V66.5H.244v-6.992a286.471 286.471 0 0011.96-10.028c3.802-3.373 7.176-6.684 10.12-9.935 3.006-3.312 5.367-6.532 7.084-9.66 1.718-3.19 2.576-6.257 2.576-9.201 0-1.963-.337-3.803-1.011-5.52-.675-1.779-1.78-3.19-3.313-4.232-1.533-1.104-3.588-1.657-6.164-1.657-3.864 0-6.777 1.229-8.74 3.682-1.901 2.453-2.821 5.397-2.76 8.832H.52C.58 17.25 1.53 13.448 3.37 10.381c1.901-3.067 4.417-5.398 7.545-6.992C14.106 1.794 17.693.996 21.68.996zm57.543 0c5.826 0 10.823 1.411 14.994 4.233 4.17 2.76 7.36 6.654 9.568 11.683 2.27 4.968 3.404 10.765 3.404 17.389 0 6.624-1.135 12.449-3.404 17.478-2.208 4.968-5.398 8.865-9.568 11.686-4.17 2.76-9.168 4.139-14.994 4.139-5.827 0-10.858-1.38-15.09-4.14-4.17-2.82-7.39-6.717-9.658-11.685-2.208-5.029-3.313-10.854-3.313-17.478 0-6.624 1.105-12.42 3.313-17.389 2.269-5.03 5.487-8.923 9.658-11.683C68.365 2.407 73.396.996 79.223.996zm0 8.74c-3.558 0-6.686.981-9.385 2.944-2.699 1.962-4.814 4.785-6.348 8.465-1.533 3.68-2.3 8.065-2.3 13.156 0 5.09.767 9.476 2.3 13.156 1.534 3.68 3.65 6.5 6.348 8.463 2.699 1.963 5.827 2.943 9.385 2.943 3.496 0 6.592-.98 9.29-2.943 2.76-1.963 4.907-4.783 6.44-8.463 1.533-3.68 2.3-8.066 2.3-13.156s-.767-9.476-2.3-13.156c-1.533-3.68-3.68-6.503-6.44-8.465-2.698-1.963-5.794-2.944-9.29-2.944zm73.865.91h8.465V26.93h17.386v8.187h-17.386v16.377h-8.465V35.117h-17.389V26.93h17.389V10.646z" fill="#fff"/><defs id="defs7446"><linearGradient id="paint0_linear_343_18" x1=".24" y1="67.6" x2="178.94" y2="67.6" gradientUnits="userSpaceOnUse"><stop stop-color="#4A2110" id="stop7431"/><stop offset="1" stop-color="#CE7B38" id="stop7433"/></linearGradient><linearGradient id="paint1_linear_343_18" x1=".24" y1="67.6" x2="178.94" y2="67.6" gradientUnits="userSpaceOnUse"><stop stop-color="#4A2110" id="stop7436"/><stop offset="1" stop-color="#CE7B38" id="stop7438"/></linearGradient><linearGradient id="paint2_linear_343_18" x1=".24" y1="67.6" x2="178.94" y2="67.6" gradientUnits="userSpaceOnUse"><stop stop-color="#4A2110" id="stop7441"/><stop offset="1" stop-color="#CE7B38" id="stop7443"/></linearGradient></defs></svg>