<svg width="125" height="33" viewBox="0 0 125 33" fill="none" xmlns="http://www.w3.org/2000/svg"><g clip-path="url(#clip0_386_61)" fill="#fff"><path d="M17.494 0C8.119 0 .5 7.398.5 16.5.5 25.62 8.12 33 17.494 33c9.393 0 16.994-7.398 16.994-16.5S26.888 0 17.494 0zm0 30.733c-8.067 0-14.641-6.328-14.641-14.233 0-7.833 6.517-14.234 14.641-14.234 8.067 0 14.64 6.329 14.64 14.234 0 7.833-6.573 14.233-14.64 14.233z"/><path d="M25.898 21.232a9.138 9.138 0 01-3.549 3.5c-1.494.834-3.155 1.215-4.93 1.215-1.83 0-3.492-.454-4.986-1.215a9.382 9.382 0 01-3.548-3.445A9.284 9.284 0 017.578 16.5c0-2.557.97-4.841 2.801-6.618 1.886-1.832 4.183-2.774 6.928-2.774 1.83 0 3.549.453 5.043 1.214a9.383 9.383 0 013.548 3.446c.28.507.523.997.747 1.505h3.212c-.28-1.052-.747-2.104-1.308-3.12a12.65 12.65 0 00-4.706-4.478c-1.998-1.106-4.183-1.668-6.517-1.668-3.492 0-6.518 1.215-8.983 3.608-2.465 2.394-3.716 5.386-3.716 8.885 0 3.445 1.251 6.455 3.716 8.83 2.466 2.394 5.547 3.608 9.095 3.608 3.66.055 6.704-1.16 9.15-3.608 1.663-1.614 2.746-3.5 3.269-5.62h-3.212c-.168.525-.448 1.015-.747 1.522z"/><path d="M30.193 14.669H14.637v3.662h15.5c.112-.67.168-1.341.168-1.994 0-.562-.056-1.106-.112-1.668z"/><g opacity=".75"><path opacity=".75" d="M43.06 28.757l2.614-6.2h1.027l2.633 6.2h-1.027l-2.297-5.603h.374l-2.297 5.603H43.06zm1.4-1.541v-.834h3.436v.834H44.46zM56.954 26.255v-3.699h.97v3.735c0 .363-.055.69-.149.98a2.314 2.314 0 01-.41.725 2.1 2.1 0 01-.636.49 2.78 2.78 0 01-.803.271c-.298.055-.597.09-.933.09-.336 0-.654-.035-.953-.09a2.904 2.904 0 01-.821-.272 2.355 2.355 0 01-.635-.49 2.316 2.316 0 01-.411-.725 3.015 3.015 0 01-.15-.979v-3.735h.971v3.7c0 .47.094.851.262 1.105s.41.435.728.526c.3.09.635.145 1.009.145.354 0 .69-.054.99-.145.298-.09.541-.272.71-.526.167-.272.26-.634.26-1.106zM60.633 22.556h5.64v.834h-5.64v-.834zm2.353.725h.97v5.458h-.97v-5.458zM71.67 28.848c-.673 0-1.27-.127-1.794-.399a2.942 2.942 0 01-1.214-1.106c-.298-.471-.448-1.052-.448-1.704 0-.671.15-1.233.448-1.705a2.941 2.941 0 011.214-1.106 4.001 4.001 0 011.793-.399c.672 0 1.27.127 1.774.4.523.253.915.634 1.214 1.105.299.472.43 1.052.43 1.704 0 .653-.15 1.215-.43 1.705-.299.471-.69.852-1.214 1.106-.523.272-1.102.399-1.774.399zm0-.834c.466 0 .896-.09 1.25-.272.374-.181.654-.435.878-.798.224-.345.318-.78.318-1.305 0-.526-.112-.961-.318-1.306a2.162 2.162 0 00-.878-.798 2.809 2.809 0 00-1.25-.272c-.468 0-.879.09-1.252.272a2.05 2.05 0 00-.878.798c-.224.345-.317.78-.317 1.306 0 .507.112.942.317 1.305.224.345.504.617.878.798.355.181.784.272 1.251.272zM82.258 28.231h-.411l3.156-5.675h.971v6.201h-.971v-4.75l.224.054-2.652 4.696h-1.027l-2.652-4.678.225-.054v4.732h-.972v-6.2h.972l3.137 5.674zM92.454 28.848c-.672 0-1.27-.127-1.793-.399a2.941 2.941 0 01-1.213-1.106c-.3-.471-.449-1.052-.449-1.704 0-.671.15-1.233.449-1.705.298-.471.69-.852 1.213-1.106a4.001 4.001 0 011.793-.399c.672 0 1.27.127 1.774.4.523.253.915.634 1.214 1.105.299.472.43 1.052.43 1.704 0 .653-.15 1.215-.43 1.705-.299.471-.69.852-1.214 1.106-.504.272-1.102.399-1.774.399zm0-.834c.467 0 .897-.09 1.251-.272.374-.181.654-.435.878-.798.224-.345.317-.78.317-1.305 0-.526-.112-.961-.317-1.306a2.162 2.162 0 00-.878-.798 2.808 2.808 0 00-1.25-.272c-.468 0-.879.09-1.252.272a2.05 2.05 0 00-.878.798c-.224.345-.317.78-.317 1.306 0 .507.112.942.317 1.305.224.345.504.617.878.798.373.181.784.272 1.251.272zM98.131 22.556h5.64v.834h-5.64v-.834zm2.353.725h.971v5.458h-.971v-5.458zM106.684 22.556h.953v6.201h-.953v-6.2zM113.09 28.757l-2.503-6.2h1.046l2.166 5.493h-.317l2.147-5.494h1.027l-2.483 6.201h-1.083zM120.373 26.074v1.85h4.127v.833h-5.098v-6.2h5.098v.833h-4.127v1.868h3.38v.816h-3.38z"/></g><path d="M80.017 4.624a7.916 7.916 0 00-2.764 1.523 7.048 7.048 0 00-1.793 2.411c-.43.943-.635 1.832-.635 3.01 0 1.179.206 2.23.598 3.155a6.22 6.22 0 001.718 2.34c.747.634 1.643 1.123 2.67 1.45 1.027.326 2.204.49 3.492.49 1.924 0 3.493-.526 4.707-1.56.859-.743 1.475-1.723 1.83-2.92-.019.236-.056.49-.094.744-.074.635-.13 1.251-.186 1.85-.038.598-.075 1.142-.075 1.631h2.39v-7.053h-8.18v1.85h5.174a4.169 4.169 0 01-.972 1.559c-.504.526-1.139.925-1.886 1.197-.765.29-1.643.435-2.633.435-1.288 0-2.371-.218-3.25-.635-.858-.417-1.512-1.015-1.941-1.777-.43-.761-.635-1.686-.635-2.738 0-1.07.242-1.813.728-2.629.486-.816 1.177-1.432 2.092-1.885.896-.454 1.98-.671 3.23-.671h8.254V4.098h-8.254c-1.307 0-2.502.181-3.585.526zM45.73 12.565h8.703v-2.121H45.73V6.419h10.626v-2.23H43.06v14.56h13.315v-2.213H45.73v-3.97zM71.8 11.387c.41-.29.747-.69.97-1.16.225-.472.356-1.052.356-1.723 0-.997-.224-1.795-.673-2.448-.448-.635-1.083-1.106-1.904-1.414-.822-.308-1.793-.454-2.914-.454h-8.982v2.267h8.982c.934 0 1.625.181 2.11.562.486.38.71.907.71 1.614 0 .743-.242 1.323-.71 1.759-.485.435-1.176.67-2.11.67h-8.982v7.688h2.67v-5.566h5.323c.933 0 1.643.054 2.147.181.504.127.86.345 1.065.671.205.308.298.762.298 1.324v3.39h2.69v-3.517c0-.816-.169-1.45-.505-1.868-.336-.417-.84-.707-1.512-.87-.411-.09-.897-.163-1.42-.218.337-.054.654-.127.953-.2a5.23 5.23 0 001.438-.688zM117.833 4.188h-2.876l-6.592 14.56h2.876l1.475-3.39h7.377l1.494 3.39h2.913l-6.667-14.56zm-4.146 8.94l2.708-6.202 2.727 6.201h-5.435zM107.469 6.419v-2.23H94.172v2.23h13.297zM96.843 12.566h8.702v-2.122H94.173v8.304h13.314v-2.212H96.843v-3.97z"/></g><defs><clipPath id="clip0_386_61"><path fill="#fff" transform="translate(.5)" d="M0 0h124v33H0z"/></clipPath></defs></svg>