<svg viewBox="0 0 125 34.77" version="1.1" id="svg56" width="125" height="34.77" xmlns="http://www.w3.org/2000/svg"><defs id="defs4"><style id="style2">.cls-1{fill:#fff}</style></defs><g id="Vrstva_2" data-name="Vrstva 2" transform="scale(.19104)"><g id="FINAL"><path class="cls-1" d="M91 0a91 91 0 1091 91A91 91 0 0091 0zm0 169.48A78.46 78.46 0 11169.45 91 78.41 78.41 0 0191 169.48z" id="path6"/><path class="cls-1" d="M136.05 117.08a50 50 0 01-19 19.3 51.9 51.9 0 01-26.35 6.75 55.53 55.53 0 01-26.7-6.75 51.32 51.32 0 01-19-19A52.26 52.26 0 0138 91a51.78 51.78 0 0152.09-51.77 56.73 56.73 0 0127 6.74 51.46 51.46 0 0119 19c1.53 2.76 2.76 5.52 4 8.28h17.16a74.66 74.66 0 00-7.05-17.16A67.34 67.34 0 00125 31.26a69.21 69.21 0 00-34.93-9.19A66 66 0 0042 42C28.8 55.17 22.06 71.72 22.06 91c0 19 6.74 35.56 19.92 48.74 13.18 13.18 29.72 19.94 48.72 19.94 19.61.3 35.85-6.44 49-19.92a64.23 64.23 0 0017.46-31H140a51.25 51.25 0 01-3.95 8.32z" id="path8"/><path class="cls-1" d="M159 80.91H75.69v20.23h83a66.3 66.3 0 00.92-11 91.67 91.67 0 00-.61-9.23z" id="path10"/><path class="cls-1" d="M232.64 146.67V156h20.27v4.2h-25v-31.29h25v4.2h-20.27v9.46h16.55v4.1z" id="path12"/><path class="cls-1" d="M295 155.07l-1.35.48v-26.64h4.68v31.32h-4.68l-22-26.06 1.4-.48v26.54h-4.75v-31.32h4.7z" id="path14"/><path class="cls-1" d="M329.49 160.76a19.14 19.14 0 01-6.7-1.11 14.32 14.32 0 01-5.12-3.18 13.81 13.81 0 01-3.26-5 18.49 18.49 0 01-1.13-6.59 18.28 18.28 0 011.2-6.76 14.81 14.81 0 013.46-5.21 15.2 15.2 0 015.3-3.33 19 19 0 016.74-1.16 17.92 17.92 0 017.33 1.4 12.47 12.47 0 015 4 12 12 0 012.22 6h-4.23a9.41 9.41 0 00-5.55-6.22 13.46 13.46 0 00-11.07.7 10.72 10.72 0 00-4.15 4.32 13.19 13.19 0 00-1.47 6.32 13.53 13.53 0 001.32 6.15 9.5 9.5 0 003.91 4.08 12.76 12.76 0 006.3 1.45 12 12 0 005-1 9 9 0 003.54-2.8 10.64 10.64 0 001.91-4.32l2.41-.29q-.72 6.23-4.17 9.43a12.38 12.38 0 01-8.79 3.12zm11.92-.53q0-1.54.12-3.54c.08-1.34.19-2.69.32-4.06.13-1.37.24-2.6.33-3.69h-11.87v-3.76h15.45v15z" id="path16"/><path class="cls-1" d="M362.16 128.91h4.68v31.32h-4.68z" id="path18"/><path class="cls-1" d="M410.8 155.07l-1.35.48v-26.64h4.68v31.32h-4.68l-22-26.06 1.4-.48v26.54h-4.73v-31.32h4.73z" id="path20"/><path class="cls-1" d="M435.17 146.67V156h20.27v4.2h-25v-31.29h24.95v4.2h-20.22v9.46h16.56v4.1z" id="path22"/><path class="cls-1" d="M475.56 146.67V156h20.27v4.2h-25v-31.29h24.94v4.2h-20.21v9.46h16.56v4.1z" id="path24"/><path class="cls-1" d="M511.23 160.23v-31.32h16.31a15.39 15.39 0 015.81 1 8 8 0 013.77 3 9.2 9.2 0 011.32 5.11 8.14 8.14 0 01-.7 3.55 6.87 6.87 0 01-1.93 2.46 8.85 8.85 0 01-2.87 1.52 15 15 0 01-3.52.68l-.34-.29a19.2 19.2 0 014.78.58 5.39 5.39 0 013 1.9 6.85 6.85 0 011 4.13v7.67h-4.68v-7.52a5.57 5.57 0 00-.65-2.94 3.55 3.55 0 00-2.19-1.49 16.83 16.83 0 00-4.35-.44H516v12.4zm4.73-16.5h11.58a6.28 6.28 0 004.63-1.54 5.5 5.5 0 001.54-4.06 4.51 4.51 0 00-1.54-3.69 7.14 7.14 0 00-4.63-1.28H516z" id="path26"/><path class="cls-1" d="M554.8 128.91h4.68v31.32h-4.68z" id="path28"/><path class="cls-1" d="M603.44 155.07l-1.35.48v-26.64h4.68v31.32h-4.68l-22-26.06 1.4-.48v26.54h-4.73v-31.32h4.73z" id="path30"/><path class="cls-1" d="M638 160.76a19.16 19.16 0 01-6.71-1.11 14.41 14.41 0 01-5.12-3.18 13.79 13.79 0 01-3.25-5 19.55 19.55 0 01.07-13.35 14.66 14.66 0 013.45-5.21 15.24 15.24 0 015.31-3.33 18.9 18.9 0 016.73-1.16 18 18 0 017.34 1.4 12.37 12.37 0 015 4 11.77 11.77 0 012.22 6h-4.24a9.41 9.41 0 00-5.55-6.22 13.48 13.48 0 00-11.08.7 10.79 10.79 0 00-4.15 4.32 13.19 13.19 0 00-1.47 6.32 13.4 13.4 0 001.33 6.15 9.39 9.39 0 003.91 4.08 12.74 12.74 0 006.29 1.45 12 12 0 005-1 9.11 9.11 0 003.55-2.8 10.77 10.77 0 001.91-4.32l2.41-.29q-.72 6.23-4.18 9.43a12.36 12.36 0 01-8.77 3.12zm11.92-.53q0-1.54.12-3.54c.08-1.34.18-2.69.31-4.06.13-1.37.24-2.6.34-3.69h-11.92v-3.76h15.44v15z" id="path32"/><path class="cls-1" id="rect34" d="M443.37 57.56h36.28v11.77h-36.28z"/><path class="cls-1" d="M467 81.23a11 11 0 01-11 11h-12.63q-10.17-.06-17-3.48A23 23 0 01416 78.94a31.53 31.53 0 01-3.41-15.06A27.59 27.59 0 01427.69 39 37.49 37.49 0 01445 35.26h34.25V22.61H445a59.26 59.26 0 00-19.15 2.92A42.43 42.43 0 00411 34a37.87 37.87 0 00-9.6 13.33 38.73 38.73 0 00-3.4 16.55 45.13 45.13 0 003.16 17.42 34.39 34.39 0 009.17 12.89 40.59 40.59 0 0014.32 8 59.71 59.71 0 0018.71 2.73H456a23.4 23.4 0 0011-2.73V102h.45a23.69 23.69 0 0012.19-20.71v-6H467z" id="path36"/><path class="cls-1" d="M381.77 62.76a16.68 16.68 0 005.2-6.38 21.75 21.75 0 001.86-9.48q0-8.19-3.59-13.45a21.2 21.2 0 00-10.16-7.81 43.37 43.37 0 00-15.62-2.54h-48.1v80.32h14.26V72.68h28.51a48.89 48.89 0 0111.53 1q4.08 1.06 5.7 3.66A14 14 0 01373 84.7v18.72h14.38V84q0-6.81-2.73-10.29a14.11 14.11 0 00-8.06-4.77 53.26 53.26 0 00-7.62-1.21 41.85 41.85 0 005.03-1.18 24.46 24.46 0 007.77-3.79zM359.46 61h-33.84V35.62h33.84q7.44 0 11.28 3.1 3.84 3.1 3.84 8.92a12.8 12.8 0 01-3.84 9.73Q366.9 61 359.46 61z" id="path38"/><path class="cls-1" d="M618.6 23.1h-15.37l-35.33 80.32h15.37l7.94-18.72h39.5l8 18.72h15.59zm-22.19 49.33l14.51-34.23 14.57 34.23z" id="path40"/><path class="cls-1" id="polygon42" d="M242.2 75.21h-14.25v28.21h71.27V91.15H242.2z"/><path class="cls-1" id="polygon44" d="M288.81 69.33V57.56h-60.86v11.77h14.25z"/><path class="cls-1" id="polygon46" d="M242.2 35.37h56.9V23.1h-71.15v28.6h14.25z"/><path class="cls-1" id="polygon48" d="M563.07 23.1h-71.15V51.7h14.26V35.37h56.89z"/><path class="cls-1" id="polygon50" d="M506.18 80.49v-5.28h-14.26v28.21h71.27V91.15h-57.01z"/><path class="cls-1" id="polygon52" d="M552.78 69.33V57.56h-60.86v11.77h14.26z"/></g></g></svg>