<svg version="1.0" xmlns="http://www.w3.org/2000/svg" width="137.33" height="137.33" viewBox="0 0 103 103"><path d="M39.6 3.6C23.4 7.4 8.8 21.1 3.9 37c-7.1 23.1 3.5 47.7 25.3 58.3 15.5 7.5 30.8 7.6 46.3.2 17.6-8.4 27.8-25.2 27.4-45-.3-16.2-6.5-28.3-19.6-38.3C71.8 3.3 55 0 39.6 3.6zM62.7 10C86.1 15.4 101 39.2 95 61.6 86.3 94 45.4 104.9 21.4 81.3 1.3 61.5 5.8 28.5 30.5 14.6c9.2-5.1 22-6.9 32.2-4.6z"/><path d="M42.4 15c-9.5 2.1-20.2 10.9-25 20.5-2.6 5.4-2.9 6.9-2.9 16 0 8.9.4 10.6 2.8 15.7 3.6 7.4 10.6 14.1 18.7 18.1 6 2.9 7.3 3.1 16.5 3.1 8.7 0 10.7-.3 15.7-2.6 7-3.3 14.1-9.7 17.9-16.3 4.1-7.2 3.9-8.5-1.6-8.5-4.2 0-4.6.3-6.4 3.8-2.4 4.7-8.8 10.6-13.8 12.8-2.4 1.1-6.7 1.7-11.9 1.7-6.8.1-8.8-.3-13.8-2.7-21.2-10.4-20.7-40.3.9-50.5 13.6-6.4 32.1-.5 38.6 12.1 1.8 3.5 2.3 3.8 6.4 3.8 5.2 0 5.6-1 2.5-7.1C79.1 19.5 60.4 11.2 42.4 15z"/><path d="M44 51.5V57h47V46H44v5.5z"/></svg>